HIERARCHY
ROOT Hips
{
	OFFSET 0.000000 0.000000 0.000000
	CHANNELS 6 Xposition Yposition Zposition Xrotation Yrotation Zrotation
	JOINT LeftUpLeg_virtual
	{
		OFFSET 0.000000 0.000000 0.000000
		CHANNELS 3 Xrotation Yrotation Zrotation
		JOINT LeftUpLeg
		{
			OFFSET 13.026900 -6.336304 -1.092800
			CHANNELS 3 Xrotation Yrotation Zrotation
			JOINT LeftLeg
			{
				OFFSET 0.524474 -46.096886 9.782700
				CHANNELS 3 Xrotation Yrotation Zrotation
				JOINT LeftFoot
				{
					OFFSET -0.524474 -53.427422 -12.948200
					CHANNELS 3 Xrotation Yrotation Zrotation
					JOINT LeftToeBase
					{
						OFFSET 0.192200 -14.009700 16.364100
						CHANNELS 3 Xrotation Yrotation Zrotation
						JOINT LeftToe_End
						{
							OFFSET -1.784700 -0.561700 9.474800
							CHANNELS 3 Xrotation Yrotation Zrotation
							End Site
							{
								OFFSET 0 0 0
							}
						}
					}
				}
			}
		}
	}
	JOINT RightUpLeg_virtual
	{
		OFFSET 0.000000 0.000000 0.000000
		CHANNELS 3 Xrotation Yrotation Zrotation
		JOINT RightUpLeg
		{
			OFFSET -12.883000 -6.336304 -1.092800
			CHANNELS 3 Xrotation Yrotation Zrotation
			JOINT RightLeg
			{
				OFFSET -0.524587 -46.096825 9.782800
				CHANNELS 3 Xrotation Yrotation Zrotation
				JOINT RightFoot
				{
					OFFSET 0.524587 -53.427383 -12.948300
					CHANNELS 3 Xrotation Yrotation Zrotation
					JOINT RightToeBase
					{
						OFFSET -0.192200 -14.009700 16.364100
						CHANNELS 3 Xrotation Yrotation Zrotation
						JOINT RightToe_End
						{
							OFFSET 1.784700 -0.561700 9.474800
							CHANNELS 3 Xrotation Yrotation Zrotation
							End Site
							{
								OFFSET 0 0 0
							}
						}
					}
				}
			}
		}
	}
	JOINT Spine_virtual
	{
		OFFSET 0.000000 0.000000 0.000000
		CHANNELS 3 Xrotation Yrotation Zrotation
		JOINT Spine
		{
			OFFSET 0.072000 7.257294 -0.789700
			CHANNELS 3 Xrotation Yrotation Zrotation
			JOINT Spine1
			{
				OFFSET 0.000000 12.508769 -0.658067
				CHANNELS 3 Xrotation Yrotation Zrotation
				JOINT Spine1_split
				{
					OFFSET 0.000000 12.508769 -0.658067
					CHANNELS 3 Xrotation Yrotation Zrotation
					JOINT Spine2
					{
						OFFSET 0.000000 12.508769 -0.658067
						CHANNELS 3 Xrotation Yrotation Zrotation
						JOINT Neck_virtual
						{
							OFFSET 0.000000 0.000000 0.000000
							CHANNELS 3 Xrotation Yrotation Zrotation
							JOINT Neck
							{
								OFFSET 0.000000 14.033295 7.520400
								CHANNELS 3 Xrotation Yrotation Zrotation
								JOINT Head
								{
									OFFSET 0.000000 8.198502 5.703100
									CHANNELS 3 Xrotation Yrotation Zrotation
									JOINT HeadTop_End
									{
										OFFSET 0.000000 17.760803 13.332701
										CHANNELS 3 Xrotation Yrotation Zrotation
										End Site
										{
											OFFSET 0 0 0
										}
									}
								}
							}
						}
						JOINT LeftShoulder_virtual
						{
							OFFSET 0.000000 0.000000 0.000000
							CHANNELS 3 Xrotation Yrotation Zrotation
							JOINT LeftShoulder
							{
								OFFSET 6.292450 5.785301 -0.669000
								CHANNELS 3 Xrotation Yrotation Zrotation
								JOINT LeftShoulder_split
								{
									OFFSET 6.292450 5.785301 -0.669000
									CHANNELS 3 Xrotation Yrotation Zrotation
									JOINT LeftArm
									{
										OFFSET 13.907140 -6.093903 1.965100
										CHANNELS 3 Xrotation Yrotation Zrotation
										JOINT LeftForeArm
										{
											OFFSET 34.140198 0.000000 0.000000
											CHANNELS 3 Xrotation Yrotation Zrotation
											JOINT LeftHand
											{
												OFFSET 40.960209 0.000000 0.000000
												CHANNELS 3 Xrotation Yrotation Zrotation
												End Site
												{
													OFFSET 0 0 0
												}
											}
										}
									}
								}
							}
						}
						JOINT RightShoulder_virtual
						{
							OFFSET 0.000000 0.000000 0.000000
							CHANNELS 3 Xrotation Yrotation Zrotation
							JOINT RightShoulder
							{
								OFFSET -6.292450 5.785301 -0.669000
								CHANNELS 3 Xrotation Yrotation Zrotation
								JOINT RightShoulder_split
								{
									OFFSET -6.292450 5.785301 -0.669000
									CHANNELS 3 Xrotation Yrotation Zrotation
									JOINT RightArm
									{
										OFFSET -13.907140 -6.093903 1.965100
										CHANNELS 3 Xrotation Yrotation Zrotation
										JOINT RightForeArm
										{
											OFFSET -34.140198 0.000000 0.000000
											CHANNELS 3 Xrotation Yrotation Zrotation
											JOINT RightHand
											{
												OFFSET -40.960209 0.000000 0.000000
												CHANNELS 3 Xrotation Yrotation Zrotation
												End Site
												{
													OFFSET 0 0 0
												}
											}
										}
									}
								}
							}
						}
					}
				}
			}
		}
	}
}
MOTION
Frames: 8
Frame Time: 0.03333333
0.428128 110.034775 1.132343 0.000000 0.000000 0.000000 -1.608686 -26.347409 0.482602 -23.543654 24.479562 11.272100 21.936464 7.661508 9.992645 -1.240512 0.377128 -13.345109 0.565813 -0.084132 -1.523999 0.000000 0.000000 0.000000 -2.119662 -25.280758 0.610598 -16.092844 -19.186343 -8.339346 25.139725 -0.248092 -7.963384 -10.842621 -1.125029 10.595450 -2.179901 0.155857 0.566098 0.000000 0.000000 0.000000 -0.631165 -27.309483 0.397974 3.797449 -2.170101 1.310422 0.441303 -0.910601 0.235060 1.037318 -0.403151 0.299056 0.000000 0.000000 0.000000 0.661283 -1.031808 0.253929 -1.645107 1.718554 2.954505 17.965117 24.546272 -13.157145 0.000000 0.000000 0.000000 1.180433 -0.971328 0.245817 -0.571007 2.665095 3.450670 -1.625616 0.041629 -0.216785 -53.312710 -2.139827 -48.294908 -10.894263 -86.297364 -10.309969 0.000000 0.000000 0.000000 2.039952 -0.622757 0.102037 -1.056104 -10.061687 9.206263 0.917054 2.124984 0.145553 -66.232317 64.439481 82.148085 -13.281144 85.425470 13.216489 0.000000 0.000000 0.000000 
0.416320 110.025185 1.114590 0.000000 0.000000 0.000000 -1.618706 -26.350701 0.479679 -23.548641 24.507098 11.281063 21.947250 7.633492 9.996259 -1.248957 0.366302 -13.350966 0.561181 -0.085673 -1.519245 0.000000 0.000000 0.000000 -2.126881 -25.284991 0.607406 -16.084426 -19.186408 -8.339055 25.117940 -0.263456 -7.955782 -10.837710 -1.130643 10.584830 -2.177712 0.156869 0.565905 0.000000 0.000000 0.000000 -0.640163 -27.310950 0.392019 3.802210 -2.174010 1.315475 0.446252 -0.911527 0.233400 1.035228 -0.419732 0.298138 0.000000 0.000000 0.000000 0.660477 -1.032102 0.250089 -1.642482 1.721627 2.962925 17.967270 24.538846 -13.158271 0.000000 0.000000 0.000000 1.185482 -0.973820 0.242395 -0.574988 2.652835 3.431923 -1.610744 0.053995 -0.217204 -53.279239 -2.149827 -48.338198 -10.644157 -86.327731 -10.070985 0.000000 0.000000 0.000000 2.043129 -0.622839 0.100718 -1.056061 -10.060209 9.217993 0.929167 2.141405 0.157630 -66.191971 64.429857 82.131495 -13.175015 85.375561 13.115217 0.000000 0.000000 0.000000 
0.402506 110.014641 1.094326 0.000000 0.000000 0.000000 -1.626855 -26.350088 0.469128 -23.560377 24.550832 11.298854 21.949569 7.585214 9.999061 -1.262067 0.347971 -13.340555 0.557941 -0.088389 -1.515572 0.000000 0.000000 0.000000 -2.131711 -25.277437 0.597799 -16.068978 -19.182096 -8.331356 25.100590 -0.288494 -7.941470 -10.829880 -1.136949 10.576778 -2.180934 0.158872 0.564029 0.000000 0.000000 0.000000 -0.649374 -27.307607 0.382033 3.806387 -2.178924 1.326241 0.452479 -0.912637 0.231299 1.033731 -0.437509 0.295660 0.000000 0.000000 0.000000 0.660103 -1.034525 0.245922 -1.642165 1.731832 2.977668 17.973691 24.536381 -13.164752 0.000000 0.000000 0.000000 1.188440 -0.978166 0.237998 -0.578477 2.653813 3.396277 -1.608118 0.077623 -0.196062 -53.267546 -2.144085 -48.429603 -10.169839 -86.329712 -9.610530 0.000000 0.000000 0.000000 2.045075 -0.625004 0.099692 -1.052366 -10.061032 9.246853 0.922719 2.146322 0.155598 -66.117686 64.423751 82.083533 -13.110561 85.334942 13.061860 0.000000 0.000000 0.000000 
0.388910 110.008331 1.078419 0.000000 0.000000 0.000000 -1.632279 -26.345817 0.453112 -23.581554 24.601488 11.324307 21.943362 7.520045 10.001289 -1.268922 0.325745 -13.313295 0.550708 -0.091998 -1.513484 0.000000 0.000000 0.000000 -2.133783 -25.258665 0.583667 -16.048204 -19.172597 -8.317396 25.085319 -0.321123 -7.923373 -10.821958 -1.143682 10.569374 -2.188393 0.161313 0.561742 0.000000 0.000000 0.000000 -0.655481 -27.297676 0.370520 3.808092 -2.184058 1.342062 0.459791 -0.913105 0.229786 1.028637 -0.446703 0.292822 0.000000 0.000000 0.000000 0.660990 -1.038438 0.242876 -1.643137 1.745556 2.993844 17.984308 24.536664 -13.174933 0.000000 0.000000 0.000000 1.189746 -0.983292 0.233198 -0.581449 2.665757 3.359740 -1.612344 0.109777 -0.157471 -53.265906 -2.119756 -48.552581 -9.563067 -86.309808 -9.020644 0.000000 0.000000 0.000000 2.045476 -0.628767 0.099125 -1.046226 -10.068058 9.285629 0.907324 2.141713 0.139945 -66.030594 64.425500 82.014835 -13.131693 85.321234 13.098293 0.000000 0.000000 0.000000 
0.376447 110.006050 1.061016 0.000000 0.000000 0.000000 -1.634513 -26.334991 0.434804 -23.613299 24.653382 11.353177 21.931480 7.443623 10.002827 -1.262560 0.307807 -13.268449 0.540597 -0.096215 -1.514545 0.000000 0.000000 0.000000 -2.134740 -25.228941 0.567943 -16.029465 -19.158394 -8.299748 25.074041 -0.360592 -7.903167 -10.816765 -1.151513 10.556150 -2.187221 0.163732 0.561210 0.000000 0.000000 0.000000 -0.658251 -27.279986 0.359770 3.807762 -2.188887 1.360306 0.468636 -0.913168 0.229541 1.024756 -0.454222 0.291620 0.000000 0.000000 0.000000 0.663185 -1.043022 0.241804 -1.643918 1.760254 3.005572 17.995776 24.536384 -13.185579 0.000000 0.000000 0.000000 1.190331 -0.988565 0.228930 -0.583467 2.683384 3.342154 -1.623100 0.145107 -0.127133 -53.258257 -2.075660 -48.687443 -9.025620 -86.288908 -8.501523 0.000000 0.000000 0.000000 2.044995 -0.632995 0.099625 -1.039252 -10.083088 9.324008 0.889913 2.136322 0.119375 -65.948147 64.445205 81.942025 -13.229394 85.341035 13.212009 0.000000 0.000000 0.000000 
0.365016 110.005219 1.041203 0.000000 0.000000 0.000000 -1.633570 -26.315322 0.418095 -23.658715 24.702824 11.380784 21.919868 7.363280 10.003319 -1.245534 0.301550 -13.209541 0.536225 -0.100443 -1.520670 0.000000 0.000000 0.000000 -2.134972 -25.194370 0.554240 -16.019917 -19.141378 -8.281111 25.065606 -0.404988 -7.882777 -10.816777 -1.160639 10.533469 -2.171112 0.165658 0.563642 0.000000 0.000000 0.000000 -0.661055 -27.254173 0.349897 3.807200 -2.192700 1.376871 0.479361 -0.912946 0.230481 1.023871 -0.461242 0.293792 0.000000 0.000000 0.000000 0.666619 -1.047283 0.243139 -1.644683 1.773475 3.009844 18.001049 24.530237 -13.191200 0.000000 0.000000 0.000000 1.192333 -0.993385 0.225593 -0.584404 2.700014 3.361682 -1.622715 0.178690 -0.101567 -53.235140 -2.007602 -48.815543 -8.666829 -86.297944 -8.165218 0.000000 0.000000 0.000000 2.044856 -0.636257 0.101502 -1.033343 -10.106209 9.358670 0.873230 2.132894 0.098249 -65.881560 64.487067 81.874728 -13.357392 85.380896 13.352884 0.000000 0.000000 0.000000 
0.356073 110.001274 1.017658 0.000000 0.000000 0.000000 -1.628210 -26.286412 0.406153 -23.717060 24.748253 11.403410 21.914846 7.280533 10.003421 -1.223996 0.306470 -13.146773 0.538701 -0.104485 -1.531449 0.000000 0.000000 0.000000 -2.133112 -25.156989 0.545256 -16.024706 -19.126958 -8.265192 25.066318 -0.451846 -7.863990 -10.821199 -1.170997 10.503645 -2.148508 0.166803 0.567875 0.000000 0.000000 0.000000 -0.665196 -27.223251 0.340249 3.809374 -2.194500 1.387136 0.492968 -0.912520 0.231413 1.030084 -0.464696 0.299097 0.000000 0.000000 0.000000 0.670599 -1.049914 0.246347 -1.646594 1.782841 3.006565 17.996476 24.518096 -13.187186 0.000000 0.000000 0.000000 1.197139 -0.996602 0.223379 -0.584014 2.708807 3.432299 -1.617187 0.205966 -0.089486 -53.194808 -1.911640 -48.918269 -8.584896 -86.350899 -8.107290 0.000000 0.000000 0.000000 2.046030 -0.637107 0.104820 -1.029893 -10.137579 9.392083 0.861421 2.128450 0.085944 -65.823182 64.548764 81.809246 -13.491684 85.435203 13.494056 0.000000 0.000000 0.000000 
0.351065 109.991005 0.994598 0.000000 0.000000 0.000000 -1.618809 -26.250727 0.399185 -23.787100 24.788094 11.420443 21.924783 7.192877 10.003572 -1.205275 0.317011 -13.093824 0.539553 -0.107870 -1.542998 0.000000 0.000000 0.000000 -2.127635 -25.120225 0.540827 -16.046580 -19.121671 -8.254181 25.080342 -0.497278 -7.848593 -10.827614 -1.181610 10.473270 -2.130100 0.167225 0.571819 0.000000 0.000000 0.000000 -0.668950 -27.187476 0.329264 3.817475 -2.193015 1.387698 0.509399 -0.911682 0.231280 1.041861 -0.474409 0.304105 0.000000 0.000000 0.000000 0.673854 -1.049978 0.249688 -1.651242 1.785633 3.000263 17.979662 24.496656 -13.167794 0.000000 0.000000 0.000000 1.205650 -0.997448 0.221409 -0.582575 2.706780 3.559504 -1.606465 0.229831 -0.083825 -53.155367 -1.786421 -48.984993 -8.773474 -86.449732 -8.322368 0.000000 0.000000 0.000000 2.050706 -0.633911 0.108486 -1.030842 -10.176476 9.432087 0.858571 2.116637 0.083915 -65.762147 64.617565 81.734067 -13.652074 85.513668 13.653524 0.000000 0.000000 0.000000 
